# MagicaVoxel @ Ephtracy

# group
o 

# material
mtllib Birch.mtl
usemtl palette

# normals
vn -1 0 0
vn 1 0 0
vn 0 0 1
vn 0 0 -1
vn 0 -1 0
vn 0 1 0

# texcoords
vt 0.970703 0.5
vt 0.974609 0.5
vt 0.978516 0.5
vt 0.982422 0.5

# verts
v 1.2 3.6 -1.5
v 1.2 3.6 -2.6
v 1.2 3.8 -1.7
v 1.2 3.8 -1.9
v 1.2 3.9 -1.7
v 1.2 3.9 -1.9
v 1.2 4.2 -2.5
v 1.2 4.2 -2.6
v 1.2 4.3 -2.5
v 1.2 4.3 -2.6
v 1.2 4.4 -2
v 1.2 4.4 -2.2
v 1.2 4.5 -2
v 1.2 4.5 -2.1
v 1.2 4.6 -2.1
v 1.2 4.6 -2.2
v 1.2 5.1 -1.5
v 1.2 5.1 -1.7
v 1.2 5.2 -1.5
v 1.2 5.2 -1.7
v 1.2 5.2 -2.6
v 1.6 2 -1.9
v 1.6 2 -2.2
v 1.6 2.1 -1.9
v 1.6 2.1 -2
v 1.6 2.3 -1.9
v 1.6 2.3 -2
v 1.6 2.5 -1.9
v 1.6 2.5 -2.2
v 1.6 2.6 -1.9
v 1.6 2.6 -2.2
v 1.6 2.8 -1.9
v 1.6 2.8 -2
v 1.6 2.9 -1.9
v 1.6 2.9 -2
v 1.6 3.2 -1.9
v 1.6 3.2 -2.2
v 1.6 3.3 -1.9
v 1.6 3.3 -2
v 1.6 3.3 -2.1
v 1.6 3.3 -2.2
v 1.6 3.4 -2
v 1.6 3.4 -2.1
v 1.6 3.6 -1.9
v 1.6 3.6 -2.2
v 1.9 2 -1.9
v 1.9 2 -2.2
v 1.9 2.2 -1.9
v 1.9 2.2 -2.1
v 1.9 2.3 -1.9
v 1.9 2.3 -2.1
v 1.9 2.3 -2.2
v 1.9 2.5 -2.1
v 1.9 2.5 -2.2
v 1.9 2.6 -2.1
v 1.9 2.6 -2.2
v 1.9 2.7 -1.9
v 1.9 2.7 -2
v 1.9 2.8 -1.9
v 1.9 2.8 -2
v 1.9 2.8 -2.1
v 1.9 2.8 -2.2
v 1.9 3 -2.1
v 1.9 3 -2.2
v 1.9 3.2 -2.1
v 1.9 3.2 -2.2
v 1.9 3.6 -1.9
v 1.9 3.6 -2.2
v 2.3 3.6 -1.5
v 2.3 3.6 -2.6
v 2.3 3.8 -2.1
v 2.3 3.8 -2.3
v 2.3 3.9 -2
v 2.3 3.9 -2.1
v 2.3 3.9 -2.2
v 2.3 3.9 -2.3
v 2.3 4 -2
v 2.3 4 -2.2
v 2.3 4.1 -1.5
v 2.3 4.1 -1.6
v 2.3 4.2 -1.5
v 2.3 4.2 -1.6
v 2.3 4.3 -2
v 2.3 4.3 -2.2
v 2.3 4.4 -2.1
v 2.3 4.4 -2.2
v 2.3 4.5 -2
v 2.3 4.5 -2.1
v 2.3 4.7 -1.7
v 2.3 4.7 -1.8
v 2.3 4.7 -2.4
v 2.3 4.7 -2.5
v 2.3 4.8 -1.7
v 2.3 4.8 -1.8
v 2.3 4.8 -2.3
v 2.3 4.8 -2.4
v 2.3 4.9 -2.4
v 2.3 4.9 -2.5
v 2.3 5 -2.3
v 2.3 5 -2.4
v 2.3 5.2 -1.5
v 2.3 5.2 -2.6
v 1.2 3.6 -1.5
v 1.2 5.1 -1.5
v 1.2 5.2 -1.5
v 1.3 5.1 -1.5
v 1.3 5.2 -1.5
v 1.4 3.7 -1.5
v 1.4 3.9 -1.5
v 1.5 3.8 -1.5
v 1.5 3.9 -1.5
v 1.6 3.7 -1.5
v 1.6 3.8 -1.5
v 1.6 4.5 -1.5
v 1.6 4.6 -1.5
v 1.7 4.5 -1.5
v 1.7 4.6 -1.5
v 1.9 4.8 -1.5
v 1.9 4.9 -1.5
v 2 4.7 -1.5
v 2 4.8 -1.5
v 2.1 4.7 -1.5
v 2.1 4.9 -1.5
v 2.2 4.1 -1.5
v 2.2 4.2 -1.5
v 2.3 3.6 -1.5
v 2.3 4.1 -1.5
v 2.3 4.2 -1.5
v 2.3 5.2 -1.5
v 1.6 2 -1.9
v 1.6 2.1 -1.9
v 1.6 2.3 -1.9
v 1.6 2.5 -1.9
v 1.6 2.6 -1.9
v 1.6 2.8 -1.9
v 1.6 2.9 -1.9
v 1.6 3.2 -1.9
v 1.6 3.3 -1.9
v 1.6 3.6 -1.9
v 1.7 2.1 -1.9
v 1.7 2.3 -1.9
v 1.7 2.5 -1.9
v 1.7 2.6 -1.9
v 1.7 3.3 -1.9
v 1.7 3.4 -1.9
v 1.8 2.2 -1.9
v 1.8 2.3 -1.9
v 1.8 2.7 -1.9
v 1.8 2.8 -1.9
v 1.8 2.9 -1.9
v 1.8 3.2 -1.9
v 1.8 3.4 -1.9
v 1.9 2 -1.9
v 1.9 2.2 -1.9
v 1.9 2.3 -1.9
v 1.9 2.7 -1.9
v 1.9 2.8 -1.9
v 1.9 3.6 -1.9
v 1.6 2 -2.2
v 1.6 2.5 -2.2
v 1.6 2.6 -2.2
v 1.6 3.2 -2.2
v 1.6 3.3 -2.2
v 1.6 3.6 -2.2
v 1.7 2.2 -2.2
v 1.7 2.3 -2.2
v 1.7 2.5 -2.2
v 1.7 2.6 -2.2
v 1.7 2.9 -2.2
v 1.7 3.1 -2.2
v 1.7 3.2 -2.2
v 1.7 3.3 -2.2
v 1.8 2.2 -2.2
v 1.8 2.3 -2.2
v 1.8 2.5 -2.2
v 1.8 2.6 -2.2
v 1.8 2.8 -2.2
v 1.8 2.9 -2.2
v 1.8 3 -2.2
v 1.8 3.1 -2.2
v 1.8 3.2 -2.2
v 1.9 2 -2.2
v 1.9 2.3 -2.2
v 1.9 2.5 -2.2
v 1.9 2.6 -2.2
v 1.9 2.8 -2.2
v 1.9 3 -2.2
v 1.9 3.2 -2.2
v 1.9 3.6 -2.2
v 1.2 3.6 -2.6
v 1.2 4.2 -2.6
v 1.2 4.3 -2.6
v 1.2 5.2 -2.6
v 1.4 4.2 -2.6
v 1.4 4.3 -2.6
v 1.5 4.9 -2.6
v 1.5 5 -2.6
v 1.7 3.6 -2.6
v 1.7 3.8 -2.6
v 1.7 4.8 -2.6
v 1.7 4.9 -2.6
v 1.7 5 -2.6
v 1.8 3.6 -2.6
v 1.8 3.7 -2.6
v 1.8 3.8 -2.6
v 1.8 3.9 -2.6
v 1.8 4.8 -2.6
v 1.8 4.9 -2.6
v 1.9 3.7 -2.6
v 1.9 3.9 -2.6
v 1.9 4.3 -2.6
v 1.9 4.5 -2.6
v 2 4.3 -2.6
v 2 4.4 -2.6
v 2.1 4.4 -2.6
v 2.1 4.5 -2.6
v 2.3 3.6 -2.6
v 2.3 5.2 -2.6
v 1.6 2 -1.9
v 1.9 2 -1.9
v 1.6 2 -2.2
v 1.9 2 -2.2
v 1.2 3.6 -1.5
v 2.3 3.6 -1.5
v 1.6 3.6 -1.9
v 1.9 3.6 -1.9
v 1.6 3.6 -2.2
v 1.9 3.6 -2.2
v 1.7 3.6 -2.5
v 1.8 3.6 -2.5
v 1.2 3.6 -2.6
v 1.7 3.6 -2.6
v 1.8 3.6 -2.6
v 2.3 3.6 -2.6
v 1.2 5.2 -1.5
v 1.3 5.2 -1.5
v 2.3 5.2 -1.5
v 1.2 5.2 -1.7
v 1.3 5.2 -1.7
v 2 5.2 -1.9
v 2.1 5.2 -1.9
v 2.1 5.2 -2
v 2.2 5.2 -2
v 1.6 5.2 -2.1
v 1.7 5.2 -2.1
v 2 5.2 -2.1
v 2.1 5.2 -2.1
v 2.1 5.2 -2.2
v 2.2 5.2 -2.2
v 1.6 5.2 -2.3
v 1.7 5.2 -2.3
v 1.2 5.2 -2.6
v 2.3 5.2 -2.6

# faces
f 3/3/1 2/3/1 1/3/1
f 4/3/1 2/3/1 3/3/1
f 5/3/1 3/3/1 1/3/1
f 5/4/1 4/4/1 3/4/1
f 6/3/1 2/3/1 4/3/1
f 6/4/1 4/4/1 5/4/1
f 7/3/1 6/3/1 5/3/1
f 7/3/1 2/3/1 6/3/1
f 8/3/1 2/3/1 7/3/1
f 9/3/1 7/3/1 5/3/1
f 9/4/1 8/4/1 7/4/1
f 10/4/1 8/4/1 9/4/1
f 11/3/1 9/3/1 5/3/1
f 11/3/1 10/3/1 9/3/1
f 12/3/1 10/3/1 11/3/1
f 13/3/1 11/3/1 5/3/1
f 13/4/1 12/4/1 11/4/1
f 14/4/1 12/4/1 13/4/1
f 15/3/1 14/3/1 13/3/1
f 15/4/1 12/4/1 14/4/1
f 16/3/1 10/3/1 12/3/1
f 16/4/1 12/4/1 15/4/1
f 17/3/1 5/3/1 1/3/1
f 17/3/1 15/3/1 13/3/1
f 17/3/1 16/3/1 15/3/1
f 17/3/1 13/3/1 5/3/1
f 18/3/1 16/3/1 17/3/1
f 19/4/1 18/4/1 17/4/1
f 20/3/1 16/3/1 18/3/1
f 20/4/1 18/4/1 19/4/1
f 21/3/1 10/3/1 16/3/1
f 21/3/1 16/3/1 20/3/1
f 24/1/1 23/1/1 22/1/1
f 25/1/1 23/1/1 24/1/1
f 26/2/1 25/2/1 24/2/1
f 27/1/1 23/1/1 25/1/1
f 27/2/1 25/2/1 26/2/1
f 28/1/1 27/1/1 26/1/1
f 29/1/1 23/1/1 27/1/1
f 29/1/1 27/1/1 28/1/1
f 30/2/1 29/2/1 28/2/1
f 31/2/1 29/2/1 30/2/1
f 32/1/1 31/1/1 30/1/1
f 33/1/1 31/1/1 32/1/1
f 34/2/1 33/2/1 32/2/1
f 35/1/1 31/1/1 33/1/1
f 35/2/1 33/2/1 34/2/1
f 36/1/1 35/1/1 34/1/1
f 37/1/1 31/1/1 35/1/1
f 37/1/1 35/1/1 36/1/1
f 38/2/1 37/2/1 36/2/1
f 39/2/1 37/2/1 38/2/1
f 40/2/1 37/2/1 39/2/1
f 41/2/1 37/2/1 40/2/1
f 42/1/1 39/1/1 38/1/1
f 42/2/1 40/2/1 39/2/1
f 43/1/1 41/1/1 40/1/1
f 43/2/1 40/2/1 42/2/1
f 44/1/1 42/1/1 38/1/1
f 44/1/1 43/1/1 42/1/1
f 45/1/1 41/1/1 43/1/1
f 45/1/1 43/1/1 44/1/1
f 46/1/2 47/1/2 48/1/2
f 48/1/2 47/1/2 49/1/2
f 48/2/2 49/2/2 50/2/2
f 49/1/2 47/1/2 51/1/2
f 50/2/2 49/2/2 51/2/2
f 51/1/2 47/1/2 52/1/2
f 50/1/2 51/1/2 53/1/2
f 51/2/2 52/2/2 53/2/2
f 53/2/2 52/2/2 54/2/2
f 50/1/2 53/1/2 55/1/2
f 53/1/2 54/1/2 55/1/2
f 55/1/2 54/1/2 56/1/2
f 50/1/2 55/1/2 57/1/2
f 57/1/2 55/1/2 58/1/2
f 57/2/2 58/2/2 59/2/2
f 58/1/2 55/1/2 60/1/2
f 59/2/2 58/2/2 60/2/2
f 55/2/2 56/2/2 61/2/2
f 60/1/2 55/1/2 61/1/2
f 61/2/2 56/2/2 62/2/2
f 59/1/2 60/1/2 63/1/2
f 60/1/2 61/1/2 63/1/2
f 61/1/2 62/1/2 63/1/2
f 63/1/2 62/1/2 64/1/2
f 59/1/2 63/1/2 65/1/2
f 63/2/2 64/2/2 65/2/2
f 65/2/2 64/2/2 66/2/2
f 59/1/2 65/1/2 67/1/2
f 65/1/2 66/1/2 67/1/2
f 67/1/2 66/1/2 68/1/2
f 69/3/2 70/3/2 71/3/2
f 71/3/2 70/3/2 72/3/2
f 69/3/2 71/3/2 73/3/2
f 71/4/2 72/4/2 74/4/2
f 73/3/2 71/3/2 74/3/2
f 74/4/2 72/4/2 75/4/2
f 72/3/2 70/3/2 76/3/2
f 75/4/2 72/4/2 76/4/2
f 74/4/2 75/4/2 77/4/2
f 69/3/2 73/3/2 77/3/2
f 73/4/2 74/4/2 77/4/2
f 75/3/2 76/3/2 78/3/2
f 77/4/2 75/4/2 78/4/2
f 69/3/2 77/3/2 79/3/2
f 77/3/2 78/3/2 79/3/2
f 79/3/2 78/3/2 80/3/2
f 79/4/2 80/4/2 81/4/2
f 80/3/2 78/3/2 82/3/2
f 81/4/2 80/4/2 82/4/2
f 81/3/2 82/3/2 83/3/2
f 82/3/2 78/3/2 83/3/2
f 78/3/2 76/3/2 84/3/2
f 83/3/2 78/3/2 84/3/2
f 83/4/2 84/4/2 85/4/2
f 84/3/2 76/3/2 86/3/2
f 85/4/2 84/4/2 86/4/2
f 81/3/2 83/3/2 87/3/2
f 83/4/2 85/4/2 87/4/2
f 85/3/2 86/3/2 88/3/2
f 87/4/2 85/4/2 88/4/2
f 81/3/2 87/3/2 89/3/2
f 87/3/2 88/3/2 89/3/2
f 89/3/2 88/3/2 90/3/2
f 76/3/2 70/3/2 91/3/2
f 90/3/2 88/3/2 91/3/2
f 86/3/2 76/3/2 91/3/2
f 88/3/2 86/3/2 91/3/2
f 91/3/2 70/3/2 92/3/2
f 89/4/2 90/4/2 93/4/2
f 81/3/2 89/3/2 93/3/2
f 90/3/2 91/3/2 94/3/2
f 93/4/2 90/4/2 94/4/2
f 94/3/2 91/3/2 95/3/2
f 91/4/2 92/4/2 96/4/2
f 95/3/2 91/3/2 96/3/2
f 95/4/2 96/4/2 97/4/2
f 96/4/2 92/4/2 97/4/2
f 92/3/2 70/3/2 98/3/2
f 97/4/2 92/4/2 98/4/2
f 95/4/2 97/4/2 99/4/2
f 94/3/2 95/3/2 99/3/2
f 93/3/2 94/3/2 99/3/2
f 97/3/2 98/3/2 100/3/2
f 99/4/2 97/4/2 100/4/2
f 93/3/2 99/3/2 101/3/2
f 81/3/2 93/3/2 101/3/2
f 99/3/2 100/3/2 101/3/2
f 98/3/2 70/3/2 102/3/2
f 101/3/2 100/3/2 102/3/2
f 100/3/2 98/3/2 102/3/2
f 106/3/3 104/3/3 103/3/3
f 106/4/3 105/4/3 104/4/3
f 107/4/3 105/4/3 106/4/3
f 108/3/3 106/3/3 103/3/3
f 108/3/3 107/3/3 106/3/3
f 109/3/3 107/3/3 108/3/3
f 110/4/3 109/4/3 108/4/3
f 111/3/3 107/3/3 109/3/3
f 111/4/3 109/4/3 110/4/3
f 112/3/3 108/3/3 103/3/3
f 112/4/3 110/4/3 108/4/3
f 113/3/3 111/3/3 110/3/3
f 113/4/3 110/4/3 112/4/3
f 114/3/3 107/3/3 111/3/3
f 114/3/3 111/3/3 113/3/3
f 115/3/3 107/3/3 114/3/3
f 116/3/3 113/3/3 112/3/3
f 116/3/3 114/3/3 113/3/3
f 116/4/3 115/4/3 114/4/3
f 117/3/3 107/3/3 115/3/3
f 117/4/3 115/4/3 116/4/3
f 118/3/3 117/3/3 116/3/3
f 118/3/3 107/3/3 117/3/3
f 119/3/3 107/3/3 118/3/3
f 120/3/3 118/3/3 116/3/3
f 121/4/3 119/4/3 118/4/3
f 121/3/3 118/3/3 120/3/3
f 122/3/3 120/3/3 116/3/3
f 122/4/3 121/4/3 120/4/3
f 123/3/3 107/3/3 119/3/3
f 123/4/3 121/4/3 122/4/3
f 123/4/3 119/4/3 121/4/3
f 124/3/3 116/3/3 112/3/3
f 124/3/3 122/3/3 116/3/3
f 124/3/3 123/3/3 122/3/3
f 125/3/3 123/3/3 124/3/3
f 126/3/3 112/3/3 103/3/3
f 126/3/3 124/3/3 112/3/3
f 127/4/3 125/4/3 124/4/3
f 127/3/3 124/3/3 126/3/3
f 128/3/3 123/3/3 125/3/3
f 128/4/3 125/4/3 127/4/3
f 129/3/3 107/3/3 123/3/3
f 129/3/3 123/3/3 128/3/3
f 140/1/3 131/1/3 130/1/3
f 140/2/3 132/2/3 131/2/3
f 141/1/3 133/1/3 132/1/3
f 141/2/3 132/2/3 140/2/3
f 142/2/3 134/2/3 133/2/3
f 142/1/3 133/1/3 141/1/3
f 143/1/3 135/1/3 134/1/3
f 143/2/3 134/2/3 142/2/3
f 144/1/3 139/1/3 138/1/3
f 144/2/3 138/2/3 137/2/3
f 145/1/3 139/1/3 144/1/3
f 146/1/3 143/1/3 142/1/3
f 146/1/3 141/1/3 140/1/3
f 146/1/3 142/1/3 141/1/3
f 147/1/3 143/1/3 146/1/3
f 148/1/3 135/1/3 143/1/3
f 148/1/3 143/1/3 147/1/3
f 149/2/3 136/2/3 135/2/3
f 149/1/3 135/1/3 148/1/3
f 150/1/3 137/1/3 136/1/3
f 150/2/3 136/2/3 149/2/3
f 151/2/3 145/2/3 144/2/3
f 151/1/3 137/1/3 150/1/3
f 151/2/3 144/2/3 137/2/3
f 152/1/3 139/1/3 145/1/3
f 152/2/3 145/2/3 151/2/3
f 153/1/3 140/1/3 130/1/3
f 153/1/3 146/1/3 140/1/3
f 154/2/3 147/2/3 146/2/3
f 154/1/3 146/1/3 153/1/3
f 155/1/3 148/1/3 147/1/3
f 155/2/3 147/2/3 154/2/3
f 156/2/3 149/2/3 148/2/3
f 156/1/3 148/1/3 155/1/3
f 157/1/3 151/1/3 150/1/3
f 157/2/3 149/2/3 156/2/3
f 157/1/3 150/1/3 149/1/3
f 157/1/3 152/1/3 151/1/3
f 158/1/3 139/1/3 152/1/3
f 158/1/3 152/1/3 157/1/3
f 159/1/4 160/1/4 165/1/4
f 165/1/4 160/1/4 166/1/4
f 160/2/4 161/2/4 167/2/4
f 166/1/4 160/1/4 167/1/4
f 161/1/4 162/1/4 168/1/4
f 167/2/4 161/2/4 168/2/4
f 168/1/4 162/1/4 169/1/4
f 169/1/4 162/1/4 170/1/4
f 162/2/4 163/2/4 171/2/4
f 170/1/4 162/1/4 171/1/4
f 163/1/4 164/1/4 172/1/4
f 171/2/4 163/2/4 172/2/4
f 165/2/4 166/2/4 173/2/4
f 159/1/4 165/1/4 173/1/4
f 166/1/4 167/1/4 174/1/4
f 173/2/4 166/2/4 174/2/4
f 167/1/4 168/1/4 174/1/4
f 168/1/4 169/1/4 174/1/4
f 174/1/4 169/1/4 175/1/4
f 175/1/4 169/1/4 176/1/4
f 176/1/4 169/1/4 177/1/4
f 169/2/4 170/2/4 178/2/4
f 177/1/4 169/1/4 178/1/4
f 178/2/4 170/2/4 179/2/4
f 170/1/4 171/1/4 180/1/4
f 179/2/4 170/2/4 180/2/4
f 171/1/4 172/1/4 180/1/4
f 180/1/4 172/1/4 181/1/4
f 159/1/4 173/1/4 182/1/4
f 173/1/4 174/1/4 182/1/4
f 174/2/4 175/2/4 183/2/4
f 182/1/4 174/1/4 183/1/4
f 175/1/4 176/1/4 184/1/4
f 183/2/4 175/2/4 184/2/4
f 176/2/4 177/2/4 185/2/4
f 184/1/4 176/1/4 185/1/4
f 178/1/4 179/1/4 186/1/4
f 185/2/4 177/2/4 186/2/4
f 177/1/4 178/1/4 186/1/4
f 179/2/4 180/2/4 187/2/4
f 186/1/4 179/1/4 187/1/4
f 180/2/4 181/2/4 187/2/4
f 181/1/4 172/1/4 188/1/4
f 187/2/4 181/2/4 188/2/4
f 172/1/4 164/1/4 189/1/4
f 188/1/4 172/1/4 189/1/4
f 190/3/4 191/3/4 194/3/4
f 191/4/4 192/4/4 194/4/4
f 192/3/4 193/3/4 195/3/4
f 194/4/4 192/4/4 195/4/4
f 194/3/4 195/3/4 196/3/4
f 195/3/4 193/3/4 196/3/4
f 196/3/4 193/3/4 197/3/4
f 190/3/4 194/3/4 198/3/4
f 194/3/4 196/3/4 198/3/4
f 198/3/4 196/3/4 199/3/4
f 199/3/4 196/3/4 200/3/4
f 196/4/4 197/4/4 201/4/4
f 200/3/4 196/3/4 201/3/4
f 197/3/4 193/3/4 202/3/4
f 201/4/4 197/4/4 202/4/4
f 198/4/4 199/4/4 203/4/4
f 203/4/4 199/4/4 204/4/4
f 199/3/4 200/3/4 205/3/4
f 204/4/4 199/4/4 205/4/4
f 205/3/4 200/3/4 206/3/4
f 200/4/4 201/4/4 207/4/4
f 206/3/4 200/3/4 207/3/4
f 201/3/4 202/3/4 208/3/4
f 207/4/4 201/4/4 208/4/4
f 205/4/4 206/4/4 209/4/4
f 203/3/4 204/3/4 209/3/4
f 204/4/4 205/4/4 209/4/4
f 207/3/4 208/3/4 210/3/4
f 209/4/4 206/4/4 210/4/4
f 206/3/4 207/3/4 210/3/4
f 210/3/4 208/3/4 211/3/4
f 211/3/4 208/3/4 212/3/4
f 209/3/4 210/3/4 213/3/4
f 210/3/4 211/3/4 213/3/4
f 211/4/4 212/4/4 213/4/4
f 213/4/4 212/4/4 214/4/4
f 213/3/4 214/3/4 215/3/4
f 214/4/4 212/4/4 215/4/4
f 212/3/4 208/3/4 216/3/4
f 215/4/4 212/4/4 216/4/4
f 203/3/4 209/3/4 217/3/4
f 213/3/4 215/3/4 217/3/4
f 215/3/4 216/3/4 217/3/4
f 209/3/4 213/3/4 217/3/4
f 208/3/4 202/3/4 218/3/4
f 217/3/4 216/3/4 218/3/4
f 216/3/4 208/3/4 218/3/4
f 202/3/4 193/3/4 218/3/4
f 221/1/5 220/1/5 219/1/5
f 222/1/5 220/1/5 221/1/5
f 225/3/5 224/3/5 223/3/5
f 226/3/5 224/3/5 225/3/5
f 227/3/5 225/3/5 223/3/5
f 228/3/5 224/3/5 226/3/5
f 229/3/5 228/3/5 227/3/5
f 230/3/5 228/3/5 229/3/5
f 231/3/5 227/3/5 223/3/5
f 231/3/5 229/3/5 227/3/5
f 232/4/5 230/4/5 229/4/5
f 232/3/5 229/3/5 231/3/5
f 233/3/5 228/3/5 230/3/5
f 233/4/5 230/4/5 232/4/5
f 234/3/5 224/3/5 228/3/5
f 234/3/5 228/3/5 233/3/5
f 235/4/6 236/4/6 238/4/6
f 236/3/6 237/3/6 239/3/6
f 238/4/6 236/4/6 239/4/6
f 238/3/6 239/3/6 240/3/6
f 239/3/6 237/3/6 240/3/6
f 240/3/6 237/3/6 241/3/6
f 240/4/6 241/4/6 242/4/6
f 241/3/6 237/3/6 242/3/6
f 242/3/6 237/3/6 243/3/6
f 238/3/6 240/3/6 244/3/6
f 244/3/6 240/3/6 245/3/6
f 240/4/6 242/4/6 246/4/6
f 245/3/6 240/3/6 246/3/6
f 242/4/6 243/4/6 246/4/6
f 246/4/6 243/4/6 247/4/6
f 245/3/6 246/3/6 248/3/6
f 247/4/6 243/4/6 248/4/6
f 246/3/6 247/3/6 248/3/6
f 243/3/6 237/3/6 249/3/6
f 248/4/6 243/4/6 249/4/6
f 244/4/6 245/4/6 250/4/6
f 238/3/6 244/3/6 250/3/6
f 245/3/6 248/3/6 251/3/6
f 250/4/6 245/4/6 251/4/6
f 248/3/6 249/3/6 251/3/6
f 238/3/6 250/3/6 252/3/6
f 250/3/6 251/3/6 252/3/6
f 251/3/6 249/3/6 253/3/6
f 252/3/6 251/3/6 253/3/6
f 249/3/6 237/3/6 253/3/6
