# MagicaVoxel @ Ephtracy

# group
o 

# material
mtllib Car.mtl
usemtl palette

# normals
vn -1 0 0
vn 1 0 0
vn 0 0 1
vn 0 0 -1
vn 0 -1 0
vn 0 1 0

# texcoords
vt 0.970703 0.5
vt 0.974609 0.5
vt 0.978516 0.5
vt 0.982422 0.5
vt 0.986328 0.5
vt 0.990234 0.5

# verts
v -1.1 0.8 -0.3
v -1.1 0.8 -3.8
v -1.1 1.1 -0.3
v -1.1 1.1 -3.8
v -1.1 1.3 -0.5
v -1.1 1.3 -0.6
v -1.1 1.3 -1
v -1.1 1.3 -3.1
v -1.1 1.3 -3.5
v -1.1 1.3 -3.6
v -1.1 1.6 -0.5
v -1.1 1.6 -0.6
v -1.1 1.6 -1
v -1.1 1.6 -3.1
v -1.1 1.6 -3.5
v -1.1 1.6 -3.6
v -1 0.7 -0.4
v -1 0.7 -3.7
v -1 0.8 -0.4
v -1 0.8 -3.7
v -1 1.1 -0.4
v -1 1.1 -3.7
v -1 1.3 -0.5
v -1 1.3 -0.6
v -1 1.3 -1
v -1 1.3 -3.1
v -1 1.3 -3.5
v -1 1.3 -3.6
v -1 1.6 -0.5
v -1 1.6 -0.6
v -1 1.6 -1
v -1 1.6 -3.1
v -1 1.6 -3.5
v -1 1.6 -3.6
v -1 2 -0.4
v -1 2 -3.7
v 0.1 2 -0.4
v 0.1 2 -3.7
v 0.1 2.1 -0.5
v 0.1 2.1 -3.6
v 0.1 3.6 -0.5
v 0.1 3.6 -3.6
v 0.1 3.7 -0.4
v 0.1 3.7 -3.7
v 0.3 1.2 -0.6
v 0.3 1.2 -1.6
v 0.3 1.2 -2.5
v 0.3 1.2 -3.5
v 0.3 1.4 -0.6
v 0.3 1.4 -1.6
v 0.3 1.4 -2.5
v 0.3 1.4 -3.5
v 1.4 1.4 -0.6
v 1.4 1.4 -1.6
v 1.4 1.4 -2.5
v 1.4 1.4 -3.5
v 1.4 2.5 -0.6
v 1.4 2.5 -1.6
v 1.4 2.5 -2.5
v 1.4 2.5 -3.5
v 1.8 2 -0.4
v 1.8 2 -0.5
v 1.8 2 -3.6
v 1.8 2 -3.7
v 1.8 3.6 -0.4
v 1.8 3.6 -0.5
v 1.8 3.6 -3.6
v 1.8 3.6 -3.7
v 2.5 1.2 -0.6
v 2.5 1.2 -1.6
v 2.5 1.2 -2.5
v 2.5 1.2 -3.5
v 2.5 1.4 -0.6
v 2.5 1.4 -1.6
v 2.5 1.4 -2.5
v 2.5 1.4 -3.5
v 3.6 1.4 -0.6
v 3.6 1.4 -1.6
v 3.6 1.4 -2.5
v 3.6 1.4 -3.5
v 3.6 2.5 -0.6
v 3.6 2.5 -1.6
v 3.6 2.5 -2.5
v 3.6 2.5 -3.5
v 4 2 -0.4
v 4 2 -0.5
v 4 2 -3.6
v 4 2 -3.7
v 4 3.6 -0.4
v 4 3.6 -0.5
v 4 3.6 -3.6
v 4 3.6 -3.7
v 4.5 0.8 -0.5
v 4.5 0.8 -3.6
v 4.5 2.4 -0.7
v 4.5 2.4 -3.4
v 4.5 3.5 -0.7
v 4.5 3.5 -3.4
v 4.5 3.6 -0.5
v 4.5 3.6 -3.6
v -0.9 0.8 -0.5
v -0.9 0.8 -3.6
v -0.9 1.9 -0.5
v -0.9 1.9 -3.6
v -0.6 0.8 -0.3
v -0.6 0.8 -0.4
v -0.6 0.8 -3.7
v -0.6 0.8 -3.8
v -0.6 1.1 -0.3
v -0.6 1.1 -0.4
v -0.6 1.1 -3.7
v -0.6 1.1 -3.8
v 0.2 1.9 -0.5
v 0.2 1.9 -3.6
v 0.2 2 -0.4
v 0.2 2 -0.5
v 0.2 2 -3.6
v 0.2 2 -3.7
v 0.2 2.1 -0.5
v 0.2 2.1 -3.6
v 0.2 3.6 -0.4
v 0.2 3.6 -0.5
v 0.2 3.6 -3.6
v 0.2 3.6 -3.7
v 1.6 1.2 -0.6
v 1.6 1.2 -1.6
v 1.6 1.2 -2.5
v 1.6 1.2 -3.5
v 1.6 2.5 -0.6
v 1.6 2.5 -1.6
v 1.6 2.5 -2.5
v 1.6 2.5 -3.5
v 2.4 2 -0.4
v 2.4 2 -0.5
v 2.4 2 -3.6
v 2.4 2 -3.7
v 2.4 3.6 -0.4
v 2.4 3.6 -0.5
v 2.4 3.6 -3.6
v 2.4 3.6 -3.7
v 3.8 1.2 -0.6
v 3.8 1.2 -1.6
v 3.8 1.2 -2.5
v 3.8 1.2 -3.5
v 3.8 2.5 -0.6
v 3.8 2.5 -1.6
v 3.8 2.5 -2.5
v 3.8 2.5 -3.5
v 4.6 0.7 -0.4
v 4.6 0.7 -3.7
v 4.6 1.1 -0.5
v 4.6 1.1 -0.6
v 4.6 1.1 -0.8
v 4.6 1.1 -3.3
v 4.6 1.1 -3.5
v 4.6 1.1 -3.6
v 4.6 1.5 -0.5
v 4.6 1.5 -0.6
v 4.6 1.5 -0.8
v 4.6 1.5 -3.3
v 4.6 1.5 -3.5
v 4.6 1.5 -3.6
v 4.6 2.4 -0.7
v 4.6 2.4 -3.4
v 4.6 3.5 -0.7
v 4.6 3.5 -3.4
v 4.6 3.7 -0.4
v 4.6 3.7 -3.7
v 4.7 1.1 -0.5
v 4.7 1.1 -0.6
v 4.7 1.1 -0.8
v 4.7 1.1 -3.3
v 4.7 1.1 -3.5
v 4.7 1.1 -3.6
v 4.7 1.5 -0.5
v 4.7 1.5 -0.6
v 4.7 1.5 -0.8
v 4.7 1.5 -3.3
v 4.7 1.5 -3.5
v 4.7 1.5 -3.6
v -1.1 0.8 -0.3
v -1.1 1.1 -0.3
v -0.6 0.8 -0.3
v -0.6 1.1 -0.3
v -1 0.7 -0.4
v -1 0.8 -0.4
v -1 1.1 -0.4
v -1 2 -0.4
v -0.6 0.8 -0.4
v -0.6 1.1 -0.4
v 0.1 2 -0.4
v 0.1 3.7 -0.4
v 0.2 2 -0.4
v 0.2 3.6 -0.4
v 1.8 2 -0.4
v 1.8 3.6 -0.4
v 2.4 2 -0.4
v 2.4 3.6 -0.4
v 4 2 -0.4
v 4 3.6 -0.4
v 4.6 0.7 -0.4
v 4.6 3.7 -0.4
v -1.1 1.3 -0.5
v -1.1 1.6 -0.5
v -1 1.3 -0.5
v -1 1.6 -0.5
v 4.6 1.1 -0.5
v 4.6 1.5 -0.5
v 4.7 1.1 -0.5
v 4.7 1.5 -0.5
v 0.3 1.2 -0.6
v 0.3 1.4 -0.6
v 1.4 1.4 -0.6
v 1.4 2.5 -0.6
v 1.6 1.2 -0.6
v 1.6 2.5 -0.6
v 2.5 1.2 -0.6
v 2.5 1.4 -0.6
v 3.6 1.4 -0.6
v 3.6 2.5 -0.6
v 3.8 1.2 -0.6
v 3.8 2.5 -0.6
v 0.3 1.2 -2.5
v 0.3 1.4 -2.5
v 1.4 1.4 -2.5
v 1.4 2.5 -2.5
v 1.6 1.2 -2.5
v 1.6 2.5 -2.5
v 2.5 1.2 -2.5
v 2.5 1.4 -2.5
v 3.6 1.4 -2.5
v 3.6 2.5 -2.5
v 3.8 1.2 -2.5
v 3.8 2.5 -2.5
v -1.1 1.3 -3.1
v -1.1 1.6 -3.1
v -1 1.3 -3.1
v -1 1.6 -3.1
v 4.6 1.1 -3.3
v 4.6 1.5 -3.3
v 4.7 1.1 -3.3
v 4.7 1.5 -3.3
v 4.5 2.4 -3.4
v 4.5 3.5 -3.4
v 4.6 2.4 -3.4
v 4.6 3.5 -3.4
v -0.9 0.8 -3.6
v -0.9 1.9 -3.6
v 0.1 2.1 -3.6
v 0.1 3.6 -3.6
v 0.2 1.9 -3.6
v 0.2 2 -3.6
v 0.2 2.1 -3.6
v 0.2 3.6 -3.6
v 1.8 2 -3.6
v 1.8 3.6 -3.6
v 2.4 2 -3.6
v 2.4 3.6 -3.6
v 4 2 -3.6
v 4 3.6 -3.6
v 4.5 0.8 -3.6
v 4.5 3.6 -3.6
v -0.9 0.8 -0.5
v -0.9 1.9 -0.5
v 0.1 2.1 -0.5
v 0.1 3.6 -0.5
v 0.2 1.9 -0.5
v 0.2 2 -0.5
v 0.2 2.1 -0.5
v 0.2 3.6 -0.5
v 1.8 2 -0.5
v 1.8 3.6 -0.5
v 2.4 2 -0.5
v 2.4 3.6 -0.5
v 4 2 -0.5
v 4 3.6 -0.5
v 4.5 0.8 -0.5
v 4.5 3.6 -0.5
v 4.5 2.4 -0.7
v 4.5 3.5 -0.7
v 4.6 2.4 -0.7
v 4.6 3.5 -0.7
v 4.6 1.1 -0.8
v 4.6 1.5 -0.8
v 4.7 1.1 -0.8
v 4.7 1.5 -0.8
v -1.1 1.3 -1
v -1.1 1.6 -1
v -1 1.3 -1
v -1 1.6 -1
v 0.3 1.2 -1.6
v 0.3 1.4 -1.6
v 1.4 1.4 -1.6
v 1.4 2.5 -1.6
v 1.6 1.2 -1.6
v 1.6 2.5 -1.6
v 2.5 1.2 -1.6
v 2.5 1.4 -1.6
v 3.6 1.4 -1.6
v 3.6 2.5 -1.6
v 3.8 1.2 -1.6
v 3.8 2.5 -1.6
v 0.3 1.2 -3.5
v 0.3 1.4 -3.5
v 1.4 1.4 -3.5
v 1.4 2.5 -3.5
v 1.6 1.2 -3.5
v 1.6 2.5 -3.5
v 2.5 1.2 -3.5
v 2.5 1.4 -3.5
v 3.6 1.4 -3.5
v 3.6 2.5 -3.5
v 3.8 1.2 -3.5
v 3.8 2.5 -3.5
v -1.1 1.3 -3.6
v -1.1 1.6 -3.6
v -1 1.3 -3.6
v -1 1.6 -3.6
v 4.6 1.1 -3.6
v 4.6 1.5 -3.6
v 4.7 1.1 -3.6
v 4.7 1.5 -3.6
v -1 0.7 -3.7
v -1 0.8 -3.7
v -1 1.1 -3.7
v -1 2 -3.7
v -0.6 0.8 -3.7
v -0.6 1.1 -3.7
v 0.1 2 -3.7
v 0.1 3.7 -3.7
v 0.2 2 -3.7
v 0.2 3.6 -3.7
v 1.8 2 -3.7
v 1.8 3.6 -3.7
v 2.4 2 -3.7
v 2.4 3.6 -3.7
v 4 2 -3.7
v 4 3.6 -3.7
v 4.6 0.7 -3.7
v 4.6 3.7 -3.7
v -1.1 0.8 -3.8
v -1.1 1.1 -3.8
v -0.6 0.8 -3.8
v -0.6 1.1 -3.8
v -1 0.7 -0.4
v 4.6 0.7 -0.4
v -1 0.7 -3.7
v 4.6 0.7 -3.7
v -1.1 0.8 -0.3
v -0.6 0.8 -0.3
v -1 0.8 -0.4
v -0.6 0.8 -0.4
v -1 0.8 -3.7
v -0.6 0.8 -3.7
v -1.1 0.8 -3.8
v -0.6 0.8 -3.8
v 4.6 1.1 -0.5
v 4.7 1.1 -0.5
v 4.6 1.1 -0.6
v 4.7 1.1 -0.6
v 4.6 1.1 -0.8
v 4.7 1.1 -0.8
v 4.6 1.1 -3.3
v 4.7 1.1 -3.3
v 4.6 1.1 -3.5
v 4.7 1.1 -3.5
v 4.6 1.1 -3.6
v 4.7 1.1 -3.6
v 0.3 1.2 -0.6
v 1.6 1.2 -0.6
v 2.5 1.2 -0.6
v 3.8 1.2 -0.6
v 0.3 1.2 -1.6
v 1.6 1.2 -1.6
v 2.5 1.2 -1.6
v 3.8 1.2 -1.6
v 0.3 1.2 -2.5
v 1.6 1.2 -2.5
v 2.5 1.2 -2.5
v 3.8 1.2 -2.5
v 0.3 1.2 -3.5
v 1.6 1.2 -3.5
v 2.5 1.2 -3.5
v 3.8 1.2 -3.5
v -1.1 1.3 -0.5
v -1 1.3 -0.5
v -1.1 1.3 -0.6
v -1 1.3 -0.6
v -1.1 1.3 -1
v -1 1.3 -1
v -1.1 1.3 -3.1
v -1 1.3 -3.1
v -1.1 1.3 -3.5
v -1 1.3 -3.5
v -1.1 1.3 -3.6
v -1 1.3 -3.6
v -0.9 1.9 -0.5
v 0.2 1.9 -0.5
v -0.9 1.9 -3.6
v 0.2 1.9 -3.6
v 4.5 3.5 -0.7
v 4.6 3.5 -0.7
v 4.5 3.5 -3.4
v 4.6 3.5 -3.4
v 0.2 3.6 -0.4
v 1.8 3.6 -0.4
v 2.4 3.6 -0.4
v 4 3.6 -0.4
v 0.1 3.6 -0.5
v 0.2 3.6 -0.5
v 1.8 3.6 -0.5
v 2.4 3.6 -0.5
v 4 3.6 -0.5
v 4.5 3.6 -0.5
v 0.1 3.6 -3.6
v 0.2 3.6 -3.6
v 1.8 3.6 -3.6
v 2.4 3.6 -3.6
v 4 3.6 -3.6
v 4.5 3.6 -3.6
v 0.2 3.6 -3.7
v 1.8 3.6 -3.7
v 2.4 3.6 -3.7
v 4 3.6 -3.7
v -0.9 0.8 -0.5
v 4.5 0.8 -0.5
v -0.9 0.8 -3.6
v 4.5 0.8 -3.6
v -1.1 1.1 -0.3
v -0.6 1.1 -0.3
v -1 1.1 -0.4
v -0.6 1.1 -0.4
v -1 1.1 -3.7
v -0.6 1.1 -3.7
v -1.1 1.1 -3.8
v -0.6 1.1 -3.8
v 0.3 1.4 -0.6
v 1.4 1.4 -0.6
v 2.5 1.4 -0.6
v 3.6 1.4 -0.6
v 0.3 1.4 -1.6
v 1.4 1.4 -1.6
v 2.5 1.4 -1.6
v 3.6 1.4 -1.6
v 0.3 1.4 -2.5
v 1.4 1.4 -2.5
v 2.5 1.4 -2.5
v 3.6 1.4 -2.5
v 0.3 1.4 -3.5
v 1.4 1.4 -3.5
v 2.5 1.4 -3.5
v 3.6 1.4 -3.5
v 4.6 1.5 -0.5
v 4.7 1.5 -0.5
v 4.6 1.5 -0.6
v 4.7 1.5 -0.6
v 4.6 1.5 -0.8
v 4.7 1.5 -0.8
v 4.6 1.5 -3.3
v 4.7 1.5 -3.3
v 4.6 1.5 -3.5
v 4.7 1.5 -3.5
v 4.6 1.5 -3.6
v 4.7 1.5 -3.6
v -1.1 1.6 -0.5
v -1 1.6 -0.5
v -1.1 1.6 -0.6
v -1 1.6 -0.6
v -1.1 1.6 -1
v -1 1.6 -1
v -1.1 1.6 -3.1
v -1 1.6 -3.1
v -1.1 1.6 -3.5
v -1 1.6 -3.5
v -1.1 1.6 -3.6
v -1 1.6 -3.6
v -1 2 -0.4
v 0.1 2 -0.4
v 0.2 2 -0.4
v 1.8 2 -0.4
v 2.4 2 -0.4
v 4 2 -0.4
v 0.2 2 -0.5
v 1.8 2 -0.5
v 2.4 2 -0.5
v 4 2 -0.5
v 0.2 2 -3.6
v 1.8 2 -3.6
v 2.4 2 -3.6
v 4 2 -3.6
v -1 2 -3.7
v 0.1 2 -3.7
v 0.2 2 -3.7
v 1.8 2 -3.7
v 2.4 2 -3.7
v 4 2 -3.7
v 0.1 2.1 -0.5
v 0.2 2.1 -0.5
v 0.1 2.1 -3.6
v 0.2 2.1 -3.6
v 4.5 2.4 -0.7
v 4.6 2.4 -0.7
v 4.5 2.4 -3.4
v 4.6 2.4 -3.4
v 1.4 2.5 -0.6
v 1.6 2.5 -0.6
v 3.6 2.5 -0.6
v 3.8 2.5 -0.6
v 1.4 2.5 -1.6
v 1.6 2.5 -1.6
v 3.6 2.5 -1.6
v 3.8 2.5 -1.6
v 1.4 2.5 -2.5
v 1.6 2.5 -2.5
v 3.6 2.5 -2.5
v 3.8 2.5 -2.5
v 1.4 2.5 -3.5
v 1.6 2.5 -3.5
v 3.6 2.5 -3.5
v 3.8 2.5 -3.5
v 0.1 3.7 -0.4
v 4.6 3.7 -0.4
v 0.1 3.7 -3.7
v 4.6 3.7 -3.7

# faces
f 3/5/1 2/5/1 1/5/1
f 4/5/1 2/5/1 3/5/1
f 11/4/1 6/4/1 5/4/1
f 12/3/1 7/3/1 6/3/1
f 12/4/1 6/4/1 11/4/1
f 13/3/1 7/3/1 12/3/1
f 14/3/1 9/3/1 8/3/1
f 15/4/1 10/4/1 9/4/1
f 15/3/1 9/3/1 14/3/1
f 16/4/1 10/4/1 15/4/1
f 19/1/1 18/1/1 17/1/1
f 20/1/1 18/1/1 19/1/1
f 23/1/1 22/1/1 21/1/1
f 24/1/1 22/1/1 23/1/1
f 25/1/1 22/1/1 24/1/1
f 26/1/1 22/1/1 25/1/1
f 27/1/1 22/1/1 26/1/1
f 28/1/1 22/1/1 27/1/1
f 29/1/1 23/1/1 21/1/1
f 31/1/1 26/1/1 25/1/1
f 32/1/1 26/1/1 31/1/1
f 34/1/1 22/1/1 28/1/1
f 35/1/1 33/1/1 32/1/1
f 35/1/1 34/1/1 33/1/1
f 35/1/1 30/1/1 29/1/1
f 35/1/1 29/1/1 21/1/1
f 35/1/1 32/1/1 31/1/1
f 35/1/1 31/1/1 30/1/1
f 36/1/1 22/1/1 34/1/1
f 36/1/1 34/1/1 35/1/1
f 39/1/1 38/1/1 37/1/1
f 40/1/1 38/1/1 39/1/1
f 41/1/1 39/1/1 37/1/1
f 42/1/1 38/1/1 40/1/1
f 43/1/1 41/1/1 37/1/1
f 43/1/1 42/1/1 41/1/1
f 44/1/1 38/1/1 42/1/1
f 44/1/1 42/1/1 43/1/1
f 49/2/1 46/2/1 45/2/1
f 50/2/1 46/2/1 49/2/1
f 51/2/1 48/2/1 47/2/1
f 52/2/1 48/2/1 51/2/1
f 57/2/1 54/2/1 53/2/1
f 58/2/1 54/2/1 57/2/1
f 59/2/1 56/2/1 55/2/1
f 60/2/1 56/2/1 59/2/1
f 65/1/1 62/1/1 61/1/1
f 66/1/1 62/1/1 65/1/1
f 67/1/1 64/1/1 63/1/1
f 68/1/1 64/1/1 67/1/1
f 73/2/1 70/2/1 69/2/1
f 74/2/1 70/2/1 73/2/1
f 75/2/1 72/2/1 71/2/1
f 76/2/1 72/2/1 75/2/1
f 81/2/1 78/2/1 77/2/1
f 82/2/1 78/2/1 81/2/1
f 83/2/1 80/2/1 79/2/1
f 84/2/1 80/2/1 83/2/1
f 89/1/1 86/1/1 85/1/1
f 90/1/1 86/1/1 89/1/1
f 91/1/1 88/1/1 87/1/1
f 92/1/1 88/1/1 91/1/1
f 95/1/1 94/1/1 93/1/1
f 96/1/1 94/1/1 95/1/1
f 97/1/1 95/1/1 93/1/1
f 98/1/1 94/1/1 96/1/1
f 99/1/1 97/1/1 93/1/1
f 99/1/1 98/1/1 97/1/1
f 100/1/1 94/1/1 98/1/1
f 100/1/1 98/1/1 99/1/1
f 101/1/2 102/1/2 103/1/2
f 103/1/2 102/1/2 104/1/2
f 105/5/2 106/5/2 109/5/2
f 109/5/2 106/5/2 110/5/2
f 107/5/2 108/5/2 111/5/2
f 111/5/2 108/5/2 112/5/2
f 113/1/2 114/1/2 116/1/2
f 116/1/2 114/1/2 117/1/2
f 115/1/2 116/1/2 119/1/2
f 117/1/2 118/1/2 119/1/2
f 116/1/2 117/1/2 119/1/2
f 119/1/2 118/1/2 120/1/2
f 115/1/2 119/1/2 121/1/2
f 121/1/2 119/1/2 122/1/2
f 120/1/2 118/1/2 123/1/2
f 123/1/2 118/1/2 124/1/2
f 125/2/2 126/2/2 129/2/2
f 129/2/2 126/2/2 130/2/2
f 127/2/2 128/2/2 131/2/2
f 131/2/2 128/2/2 132/2/2
f 133/1/2 134/1/2 137/1/2
f 137/1/2 134/1/2 138/1/2
f 135/1/2 136/1/2 139/1/2
f 139/1/2 136/1/2 140/1/2
f 141/2/2 142/2/2 145/2/2
f 145/2/2 142/2/2 146/2/2
f 143/2/2 144/2/2 147/2/2
f 147/2/2 144/2/2 148/2/2
f 149/1/2 150/1/2 151/1/2
f 151/1/2 150/1/2 152/1/2
f 152/1/2 150/1/2 153/1/2
f 153/1/2 150/1/2 154/1/2
f 154/1/2 150/1/2 155/1/2
f 155/1/2 150/1/2 156/1/2
f 149/1/2 151/1/2 157/1/2
f 153/1/2 154/1/2 159/1/2
f 159/1/2 154/1/2 160/1/2
f 156/1/2 150/1/2 162/1/2
f 160/1/2 161/1/2 163/1/2
f 161/1/2 162/1/2 163/1/2
f 157/1/2 158/1/2 163/1/2
f 158/1/2 159/1/2 163/1/2
f 159/1/2 160/1/2 163/1/2
f 163/1/2 162/1/2 164/1/2
f 157/1/2 163/1/2 165/1/2
f 164/1/2 162/1/2 166/1/2
f 149/1/2 157/1/2 167/1/2
f 165/1/2 166/1/2 167/1/2
f 157/1/2 165/1/2 167/1/2
f 162/1/2 150/1/2 168/1/2
f 167/1/2 166/1/2 168/1/2
f 166/1/2 162/1/2 168/1/2
f 169/4/2 170/4/2 175/4/2
f 170/6/2 171/6/2 176/6/2
f 175/4/2 170/4/2 176/4/2
f 176/6/2 171/6/2 177/6/2
f 172/6/2 173/6/2 178/6/2
f 173/4/2 174/4/2 179/4/2
f 178/6/2 173/6/2 179/6/2
f 179/4/2 174/4/2 180/4/2
f 183/5/3 182/5/3 181/5/3
f 184/5/3 182/5/3 183/5/3
f 189/1/3 186/1/3 185/1/3
f 190/1/3 188/1/3 187/1/3
f 191/1/3 188/1/3 190/1/3
f 191/1/3 190/1/3 189/1/3
f 193/1/3 191/1/3 189/1/3
f 193/1/3 192/1/3 191/1/3
f 194/1/3 192/1/3 193/1/3
f 195/1/3 193/1/3 189/1/3
f 196/1/3 192/1/3 194/1/3
f 197/1/3 195/1/3 189/1/3
f 197/1/3 196/1/3 195/1/3
f 198/1/3 192/1/3 196/1/3
f 198/1/3 196/1/3 197/1/3
f 199/1/3 197/1/3 189/1/3
f 200/1/3 192/1/3 198/1/3
f 201/1/3 189/1/3 185/1/3
f 201/1/3 200/1/3 199/1/3
f 201/1/3 199/1/3 189/1/3
f 202/1/3 192/1/3 200/1/3
f 202/1/3 200/1/3 201/1/3
f 205/4/3 204/4/3 203/4/3
f 206/4/3 204/4/3 205/4/3
f 209/4/3 208/4/3 207/4/3
f 210/4/3 208/4/3 209/4/3
f 213/2/3 212/2/3 211/2/3
f 215/2/3 213/2/3 211/2/3
f 215/2/3 214/2/3 213/2/3
f 216/2/3 214/2/3 215/2/3
f 219/2/3 218/2/3 217/2/3
f 221/2/3 219/2/3 217/2/3
f 221/2/3 220/2/3 219/2/3
f 222/2/3 220/2/3 221/2/3
f 225/2/3 224/2/3 223/2/3
f 227/2/3 225/2/3 223/2/3
f 227/2/3 226/2/3 225/2/3
f 228/2/3 226/2/3 227/2/3
f 231/2/3 230/2/3 229/2/3
f 233/2/3 231/2/3 229/2/3
f 233/2/3 232/2/3 231/2/3
f 234/2/3 232/2/3 233/2/3
f 237/3/3 236/3/3 235/3/3
f 238/3/3 236/3/3 237/3/3
f 241/6/3 240/6/3 239/6/3
f 242/6/3 240/6/3 241/6/3
f 245/1/3 244/1/3 243/1/3
f 246/1/3 244/1/3 245/1/3
f 251/1/3 248/1/3 247/1/3
f 253/1/3 250/1/3 249/1/3
f 254/1/3 250/1/3 253/1/3
f 255/1/3 252/1/3 251/1/3
f 257/1/3 255/1/3 251/1/3
f 257/1/3 256/1/3 255/1/3
f 258/1/3 256/1/3 257/1/3
f 259/1/3 257/1/3 251/1/3
f 261/1/3 251/1/3 247/1/3
f 261/1/3 260/1/3 259/1/3
f 261/1/3 259/1/3 251/1/3
f 262/1/3 260/1/3 261/1/3
f 263/1/4 264/1/4 267/1/4
f 265/1/4 266/1/4 269/1/4
f 269/1/4 266/1/4 270/1/4
f 267/1/4 268/1/4 271/1/4
f 267/1/4 271/1/4 273/1/4
f 271/1/4 272/1/4 273/1/4
f 273/1/4 272/1/4 274/1/4
f 267/1/4 273/1/4 275/1/4
f 263/1/4 267/1/4 277/1/4
f 275/1/4 276/1/4 277/1/4
f 267/1/4 275/1/4 277/1/4
f 277/1/4 276/1/4 278/1/4
f 279/1/4 280/1/4 281/1/4
f 281/1/4 280/1/4 282/1/4
f 283/6/4 284/6/4 285/6/4
f 285/6/4 284/6/4 286/6/4
f 287/3/4 288/3/4 289/3/4
f 289/3/4 288/3/4 290/3/4
f 291/2/4 292/2/4 293/2/4
f 291/2/4 293/2/4 295/2/4
f 293/2/4 294/2/4 295/2/4
f 295/2/4 294/2/4 296/2/4
f 297/2/4 298/2/4 299/2/4
f 297/2/4 299/2/4 301/2/4
f 299/2/4 300/2/4 301/2/4
f 301/2/4 300/2/4 302/2/4
f 303/2/4 304/2/4 305/2/4
f 303/2/4 305/2/4 307/2/4
f 305/2/4 306/2/4 307/2/4
f 307/2/4 306/2/4 308/2/4
f 309/2/4 310/2/4 311/2/4
f 309/2/4 311/2/4 313/2/4
f 311/2/4 312/2/4 313/2/4
f 313/2/4 312/2/4 314/2/4
f 315/4/4 316/4/4 317/4/4
f 317/4/4 316/4/4 318/4/4
f 319/4/4 320/4/4 321/4/4
f 321/4/4 320/4/4 322/4/4
f 323/1/4 324/1/4 327/1/4
f 325/1/4 326/1/4 328/1/4
f 328/1/4 326/1/4 329/1/4
f 327/1/4 328/1/4 329/1/4
f 327/1/4 329/1/4 331/1/4
f 329/1/4 330/1/4 331/1/4
f 331/1/4 330/1/4 332/1/4
f 327/1/4 331/1/4 333/1/4
f 332/1/4 330/1/4 334/1/4
f 327/1/4 333/1/4 335/1/4
f 333/1/4 334/1/4 335/1/4
f 334/1/4 330/1/4 336/1/4
f 335/1/4 334/1/4 336/1/4
f 327/1/4 335/1/4 337/1/4
f 336/1/4 330/1/4 338/1/4
f 323/1/4 327/1/4 339/1/4
f 337/1/4 338/1/4 339/1/4
f 327/1/4 337/1/4 339/1/4
f 338/1/4 330/1/4 340/1/4
f 339/1/4 338/1/4 340/1/4
f 341/5/4 342/5/4 343/5/4
f 343/5/4 342/5/4 344/5/4
f 347/1/5 346/1/5 345/1/5
f 348/1/5 346/1/5 347/1/5
f 351/5/5 350/5/5 349/5/5
f 352/5/5 350/5/5 351/5/5
f 353/5/5 351/5/5 349/5/5
f 355/5/5 353/5/5 349/5/5
f 355/5/5 354/5/5 353/5/5
f 356/5/5 354/5/5 355/5/5
f 359/4/5 358/4/5 357/4/5
f 360/4/5 358/4/5 359/4/5
f 361/6/5 360/6/5 359/6/5
f 362/6/5 360/6/5 361/6/5
f 365/6/5 364/6/5 363/6/5
f 366/6/5 364/6/5 365/6/5
f 367/4/5 366/4/5 365/4/5
f 368/4/5 366/4/5 367/4/5
f 373/2/5 370/2/5 369/2/5
f 374/2/5 370/2/5 373/2/5
f 375/2/5 372/2/5 371/2/5
f 376/2/5 372/2/5 375/2/5
f 381/2/5 378/2/5 377/2/5
f 382/2/5 378/2/5 381/2/5
f 383/2/5 380/2/5 379/2/5
f 384/2/5 380/2/5 383/2/5
f 387/4/5 386/4/5 385/4/5
f 388/4/5 386/4/5 387/4/5
f 389/3/5 388/3/5 387/3/5
f 390/3/5 388/3/5 389/3/5
f 393/3/5 392/3/5 391/3/5
f 394/3/5 392/3/5 393/3/5
f 395/4/5 394/4/5 393/4/5
f 396/4/5 394/4/5 395/4/5
f 399/1/5 398/1/5 397/1/5
f 400/1/5 398/1/5 399/1/5
f 403/1/5 402/1/5 401/1/5
f 404/1/5 402/1/5 403/1/5
f 410/1/5 406/1/5 405/1/5
f 411/1/5 406/1/5 410/1/5
f 412/1/5 408/1/5 407/1/5
f 413/1/5 408/1/5 412/1/5
f 415/1/5 411/1/5 410/1/5
f 415/1/5 414/1/5 413/1/5
f 415/1/5 413/1/5 412/1/5
f 415/1/5 412/1/5 411/1/5
f 415/1/5 410/1/5 409/1/5
f 416/1/5 414/1/5 415/1/5
f 417/1/5 414/1/5 416/1/5
f 418/1/5 414/1/5 417/1/5
f 419/1/5 414/1/5 418/1/5
f 420/1/5 414/1/5 419/1/5
f 421/1/5 417/1/5 416/1/5
f 422/1/5 417/1/5 421/1/5
f 423/1/5 419/1/5 418/1/5
f 424/1/5 419/1/5 423/1/5
f 425/1/6 426/1/6 427/1/6
f 427/1/6 426/1/6 428/1/6
f 429/5/6 430/5/6 431/5/6
f 431/5/6 430/5/6 432/5/6
f 429/5/6 431/5/6 433/5/6
f 429/5/6 433/5/6 435/5/6
f 433/5/6 434/5/6 435/5/6
f 435/5/6 434/5/6 436/5/6
f 437/2/6 438/2/6 441/2/6
f 441/2/6 438/2/6 442/2/6
f 439/2/6 440/2/6 443/2/6
f 443/2/6 440/2/6 444/2/6
f 445/2/6 446/2/6 449/2/6
f 449/2/6 446/2/6 450/2/6
f 447/2/6 448/2/6 451/2/6
f 451/2/6 448/2/6 452/2/6
f 453/4/6 454/4/6 455/4/6
f 455/4/6 454/4/6 456/4/6
f 455/6/6 456/6/6 457/6/6
f 457/6/6 456/6/6 458/6/6
f 459/6/6 460/6/6 461/6/6
f 461/6/6 460/6/6 462/6/6
f 461/4/6 462/4/6 463/4/6
f 463/4/6 462/4/6 464/4/6
f 465/4/6 466/4/6 467/4/6
f 467/4/6 466/4/6 468/4/6
f 467/3/6 468/3/6 469/3/6
f 469/3/6 468/3/6 470/3/6
f 471/3/6 472/3/6 473/3/6
f 473/3/6 472/3/6 474/3/6
f 473/4/6 474/4/6 475/4/6
f 475/4/6 474/4/6 476/4/6
f 479/1/6 480/1/6 483/1/6
f 483/1/6 480/1/6 484/1/6
f 481/1/6 482/1/6 485/1/6
f 485/1/6 482/1/6 486/1/6
f 477/1/6 478/1/6 491/1/6
f 491/1/6 478/1/6 492/1/6
f 487/1/6 488/1/6 493/1/6
f 493/1/6 488/1/6 494/1/6
f 489/1/6 490/1/6 495/1/6
f 495/1/6 490/1/6 496/1/6
f 497/1/6 498/1/6 499/1/6
f 499/1/6 498/1/6 500/1/6
f 501/1/6 502/1/6 503/1/6
f 503/1/6 502/1/6 504/1/6
f 505/2/6 506/2/6 509/2/6
f 509/2/6 506/2/6 510/2/6
f 507/2/6 508/2/6 511/2/6
f 511/2/6 508/2/6 512/2/6
f 513/2/6 514/2/6 517/2/6
f 517/2/6 514/2/6 518/2/6
f 515/2/6 516/2/6 519/2/6
f 519/2/6 516/2/6 520/2/6
f 521/1/6 522/1/6 523/1/6
f 523/1/6 522/1/6 524/1/6
