# Blender v2.82 (sub 7) OBJ File: 'Terrain.blend'
# www.blender.org
o Cube
v 88.956039 8.788102 14.394000
v 88.956039 -8.999997 14.394000
v -89.955276 8.788102 14.394000
v -89.955276 -8.999997 14.394000
v 88.956039 8.788102 -14.394097
v -89.955276 8.788102 -14.394099
vt -3.115767 0.381915
vt 4.115766 1.000000
vt -3.115766 1.000000
vt -3.115767 0.000000
vt 4.115767 0.381914
vt -3.115767 0.381914
vt 4.115766 0.381914
vt 4.115767 0.000000
vn 0.0000 1.0000 0.0000
vn 0.0000 0.0000 1.0000
s off
f 5/1/1 3/2/1 1/3/1
f 1/4/2 4/5/2 2/6/2
f 5/1/1 6/7/1 3/2/1
f 1/4/2 3/8/2 4/5/2
